<?xml version="1.0" encoding="UTF-8"?>
<svg version="1.1" xmlns="http://www.w3.org/2000/svg" width="364" height="322">
<path d="M0 0 C9.40564924 8.71901094 15.3101418 19.10330076 18.0859375 31.62890625 C20.02533203 31.66757813 20.02533203 31.66757813 22.00390625 31.70703125 C37.41701777 32.14965506 49.35567476 34.36866674 62.0859375 43.62890625 C62.72015625 44.05558594 63.354375 44.48226562 64.0078125 44.921875 C73.57292335 52.05183148 80.53205833 65.91148909 82.76953125 77.43359375 C83.10671834 80.83876712 83.02907768 84.09102117 82.91455078 87.50488281 C82.64955885 95.92866353 83.19762404 101.49985245 87.55078125 108.9609375 C93.60736621 119.48675819 93.78687423 133.81805936 90.9609375 145.44140625 C88.28721522 153.56069135 85.3684205 160.81961268 78.73461914 166.41992188 C74.97990594 169.70717599 72.42180548 172.39753813 71.65576172 177.48681641 C71.41639835 183.15174936 71.6945259 188.7805574 71.9375 194.44140625 C72.45290783 207.3847308 67.09884616 217.53221509 58.83203125 227.2890625 C47.11782126 239.7553887 34.22418761 244.69024666 17.50390625 245.41796875 C11.88310141 245.49293477 11.88310141 245.49293477 7.453125 248.4140625 C6.96070313 249.16558594 6.46828125 249.91710937 5.9609375 250.69140625 C-1.75060258 261.19045108 -13.90124374 267.60353488 -26.49658203 270.28027344 C-29.74500123 270.74873866 -32.83686347 270.62522357 -36.10546875 270.44750977 C-43.45548347 269.86966692 -43.45548347 269.86966692 -50.3125 271.93359375 C-51.9481717 273.66704558 -51.9481717 273.66704558 -53.33203125 275.62109375 C-59.34877266 283.25715569 -71.45030441 288.20141201 -80.9140625 289.62890625 C-97.84255484 290.93736906 -112.56256225 289.03044512 -125.9140625 277.62890625 C-137.99166264 267.06592372 -144.16759108 254.68913474 -145.8515625 238.69140625 C-146.44715865 224.90106452 -142.26153754 211.36899108 -133.45703125 200.6328125 C-131.88556544 198.92771023 -130.28184855 197.25133146 -128.63671875 195.6171875 C-126.58665376 193.68946983 -126.58665376 193.68946983 -126.9140625 190.62890625 C-128.48372088 188.84656963 -128.48372088 188.84656963 -130.5390625 187.06640625 C-140.8258401 177.07042095 -145.26355944 163.99686992 -145.9453125 149.81640625 C-145.77782632 132.73281627 -138.023566 119.06096969 -126.9140625 106.62890625 C-127.33816406 106.25121094 -127.76226562 105.87351562 -128.19921875 105.484375 C-139.80266979 94.59498248 -145.30487779 81.05431231 -146.0078125 65.23828125 C-145.58081894 48.79902927 -139.48960458 36.04083642 -127.9140625 24.62890625 C-127.34945312 24.05398437 -126.78484375 23.4790625 -126.203125 22.88671875 C-118.84420146 15.95856147 -108.08363097 10.58318196 -97.8515625 10.6484375 C-91.1509823 10.71255937 -91.1509823 10.71255937 -85.46484375 7.58984375 C-83.99339105 5.84100769 -82.55373879 4.06499564 -81.14453125 2.265625 C-73.20383146 -7.12136687 -59.11970644 -12.52859444 -47.17578125 -14.15234375 C-29.70363258 -15.32412857 -13.72672035 -11.16906066 0 0 Z " fill="#88DACA" transform="translate(197.9140625,27.37109375)"/>
<path d="M0 0 C2.61669111 1.20617 5.17629834 2.50159659 7.73828125 3.8203125 C15.57788633 7.53474953 23.50933356 8.77917473 32.05078125 9.9453125 C32.01597656 11.09386719 31.98117188 12.24242187 31.9453125 13.42578125 C31.56716131 28.67577073 31.56716131 28.67577073 36.15234375 43.046875 C37.05078125 44.9453125 37.05078125 44.9453125 37.05078125 48.9453125 C37.71078125 48.9453125 38.37078125 48.9453125 39.05078125 48.9453125 C40.1515586 50.42392424 41.1811885 51.9557852 42.17578125 53.5078125 C49.02276188 63.44923632 57.30363526 67.92909534 68.05078125 72.9453125 C69.38669019 73.60680289 70.7214199 74.27076033 72.05078125 74.9453125 C64.12892275 85.16034057 53.86753601 91.66585058 41.05078125 93.9453125 C24.5698919 95.82126403 11.394833 93.13578952 -1.94921875 82.9453125 C-2.77421875 82.32785156 -3.59921875 81.71039063 -4.44921875 81.07421875 C-13.06837714 73.73446668 -17.44772593 63.44979095 -20.94921875 52.9453125 C-21.20658638 49.4291247 -21.18065594 45.90742523 -21.19921875 42.3828125 C-21.21984375 41.43083984 -21.24046875 40.47886719 -21.26171875 39.49804688 C-21.34529731 24.15093409 -14.93340938 12.43081451 -4.31640625 1.6484375 C-1.94921875 -0.0546875 -1.94921875 -0.0546875 0 0 Z " fill="#88DACA" transform="translate(75.94921875,221.0546875)"/>
<path d="M0 0 C9.40564924 8.71901094 15.3101418 19.10330076 18.0859375 31.62890625 C20.02533203 31.66757813 20.02533203 31.66757813 22.00390625 31.70703125 C37.41701777 32.14965506 49.35567476 34.36866674 62.0859375 43.62890625 C62.72015625 44.05558594 63.354375 44.48226562 64.0078125 44.921875 C73.57292335 52.05183148 80.53205833 65.91148909 82.76953125 77.43359375 C83.10671834 80.83876712 83.02907768 84.09102117 82.91455078 87.50488281 C82.64955885 95.92866353 83.19762404 101.49985245 87.55078125 108.9609375 C93.60736621 119.48675819 93.78687423 133.81805936 90.9609375 145.44140625 C88.28721522 153.56069135 85.3684205 160.81961268 78.73461914 166.41992188 C74.97990594 169.70717599 72.42180548 172.39753813 71.65576172 177.48681641 C71.41639835 183.15174936 71.6945259 188.7805574 71.9375 194.44140625 C72.45290783 207.3847308 67.09884616 217.53221509 58.83203125 227.2890625 C47.11782126 239.7553887 34.22418761 244.69024666 17.50390625 245.41796875 C11.88310141 245.49293477 11.88310141 245.49293477 7.453125 248.4140625 C6.96070313 249.16558594 6.46828125 249.91710937 5.9609375 250.69140625 C-1.75060258 261.19045108 -13.90124374 267.60353488 -26.49658203 270.28027344 C-29.74500123 270.74873866 -32.83686347 270.62522357 -36.10546875 270.44750977 C-43.45548347 269.86966692 -43.45548347 269.86966692 -50.3125 271.93359375 C-51.9481717 273.66704558 -51.9481717 273.66704558 -53.33203125 275.62109375 C-59.34877266 283.25715569 -71.45030441 288.20141201 -80.9140625 289.62890625 C-97.84255484 290.93736906 -112.56256225 289.03044512 -125.9140625 277.62890625 C-137.99166264 267.06592372 -144.16759108 254.68913474 -145.8515625 238.69140625 C-146.44715865 224.90106452 -142.26153754 211.36899108 -133.45703125 200.6328125 C-131.88556544 198.92771023 -130.28184855 197.25133146 -128.63671875 195.6171875 C-126.58665376 193.68946983 -126.58665376 193.68946983 -126.9140625 190.62890625 C-128.48372088 188.84656963 -128.48372088 188.84656963 -130.5390625 187.06640625 C-140.8258401 177.07042095 -145.26355944 163.99686992 -145.9453125 149.81640625 C-145.77782632 132.73281627 -138.023566 119.06096969 -126.9140625 106.62890625 C-127.33816406 106.25121094 -127.76226562 105.87351562 -128.19921875 105.484375 C-139.80266979 94.59498248 -145.30487779 81.05431231 -146.0078125 65.23828125 C-145.58081894 48.79902927 -139.48960458 36.04083642 -127.9140625 24.62890625 C-127.34945312 24.05398437 -126.78484375 23.4790625 -126.203125 22.88671875 C-118.84420146 15.95856147 -108.08363097 10.58318196 -97.8515625 10.6484375 C-91.1509823 10.71255937 -91.1509823 10.71255937 -85.46484375 7.58984375 C-83.99339105 5.84100769 -82.55373879 4.06499564 -81.14453125 2.265625 C-73.20383146 -7.12136687 -59.11970644 -12.52859444 -47.17578125 -14.15234375 C-29.70363258 -15.32412857 -13.72672035 -11.16906066 0 0 Z M-83.9140625 7.62890625 C-85.18119342 9.77235422 -85.18119342 9.77235422 -85.9140625 11.62890625 C-85.04265625 11.77585937 -84.17125 11.9228125 -83.2734375 12.07421875 C-75.5112647 13.53592662 -69.31054829 15.5323064 -62.33984375 19.32421875 C-59.88539968 20.73338719 -59.88539968 20.73338719 -56.9140625 21.62890625 C-56.9140625 22.28890625 -56.9140625 22.94890625 -56.9140625 23.62890625 C-57.51992187 23.2421875 -58.12578125 22.85546875 -58.75 22.45703125 C-73.095553 13.54071831 -87.68865438 10.09113605 -104.4765625 13.3125 C-120.264365 18.26674531 -131.51626026 28.28141252 -139.2890625 42.75390625 C-144.69370311 54.77235578 -145.3095158 71.48371308 -140.8515625 83.81640625 C-137.0924243 92.01430086 -131.9195964 99.8688006 -124.9140625 105.62890625 C-122.81107337 105.33377781 -122.81107337 105.33377781 -120.9140625 104.62890625 C-120.5840625 104.62890625 -120.2540625 104.62890625 -119.9140625 104.62890625 C-120.55472656 105.17417969 -121.19539063 105.71945313 -121.85546875 106.28125 C-132.36964973 115.44786084 -141.86585134 126.30645428 -143.10693359 140.89624023 C-143.64168097 157.34863457 -142.18799376 169.17557427 -131.9140625 182.62890625 C-131.29660156 183.45390625 -130.67914063 184.27890625 -130.04296875 185.12890625 C-122.73471634 193.71107422 -110.31449034 200.87449448 -98.90625 201.79003906 C-83.71618632 202.091318 -72.16731029 200.69042902 -58.9140625 192.62890625 C-67.67998479 198.39203388 -75.94677717 201.20963567 -86.19921875 203.1015625 C-86.76511719 203.27558594 -87.33101562 203.44960937 -87.9140625 203.62890625 C-91.82141521 211.44361168 -89.16332227 225.97954428 -86.5703125 233.890625 C-86.35375 234.46425781 -86.1371875 235.03789062 -85.9140625 235.62890625 C-85.2540625 235.62890625 -84.5940625 235.62890625 -83.9140625 235.62890625 C-83.2540625 238.59890625 -82.5940625 241.56890625 -81.9140625 244.62890625 C-82.2440625 243.96890625 -82.5740625 243.30890625 -82.9140625 242.62890625 C-83.5740625 242.62890625 -84.2340625 242.62890625 -84.9140625 242.62890625 C-85.06875 241.42234375 -85.06875 241.42234375 -85.2265625 240.19140625 C-85.91657715 236.61587581 -86.95815923 233.38719927 -88.1953125 229.97265625 C-90.0037916 224.07544178 -90.03984076 218.35782449 -89.9765625 212.25390625 C-89.97205078 211.42246094 -89.96753906 210.59101563 -89.96289062 209.734375 C-89.95119414 207.69918728 -89.93326185 205.66403702 -89.9140625 203.62890625 C-91.51121094 203.42587891 -91.51121094 203.42587891 -93.140625 203.21875 C-102.49887149 201.87953584 -109.8543574 199.68913475 -118.05859375 194.95703125 C-120.70950937 193.46453998 -120.70950937 193.46453998 -123.03125 193.69140625 C-131.84714271 198.08106237 -137.21102238 207.94060991 -140.9140625 216.62890625 C-144.86118463 229.29148596 -145.00911184 244.79597354 -139.41015625 256.9296875 C-137.14219674 261.02148911 -134.75451875 264.90943413 -131.9140625 268.62890625 C-131.29660156 269.45390625 -130.67914063 270.27890625 -130.04296875 271.12890625 C-123.09164444 279.2919293 -110.74832713 286.78967236 -99.88378906 287.82177734 C-82.50994457 288.42275939 -68.47911906 286.68934648 -54.9140625 274.62890625 C-53.0465358 272.69599568 -51.49517132 270.80974601 -49.9140625 268.62890625 C-52.8840625 267.14390625 -52.8840625 267.14390625 -55.9140625 265.62890625 C-54.98400391 265.95375 -54.98400391 265.95375 -54.03515625 266.28515625 C-39.57792286 270.83066195 -25.43448302 269.26167872 -11.7890625 263.00390625 C1.62012502 255.89563276 9.84658442 244.76887189 14.7734375 230.66015625 C18.86427298 215.8876948 15.98526455 200.97287691 9.0859375 187.62890625 C9.88548751 189.14560989 10.67515138 190.66752623 11.4609375 192.19140625 C11.90179688 193.03832031 12.34265625 193.88523438 12.796875 194.7578125 C15.9191712 201.71201766 16.42401012 207.93839976 16.3984375 215.44140625 C16.41455078 216.37533203 16.43066406 217.30925781 16.44726562 218.27148438 C16.45184762 224.87414295 15.28530796 230.42227998 13.0859375 236.62890625 C12.6940625 237.82515625 12.3021875 239.02140625 11.8984375 240.25390625 C11.6303125 241.03765625 11.3621875 241.82140625 11.0859375 242.62890625 C12.7291834 244.27215215 14.57036563 243.83961888 16.8359375 243.87890625 C31.72039367 243.68635184 45.06768619 238.41111376 55.83203125 228.11328125 C67.70104429 215.03062563 70.75884004 201.01233351 70.24414062 183.99755859 C69.91227914 179.02885463 68.66333154 174.33292062 67.0859375 169.62890625 C67.7459375 170.61890625 68.4059375 171.60890625 69.0859375 172.62890625 C78.16740118 168.78674854 83.29901416 159.3030865 86.93359375 150.64453125 C87.31386719 149.649375 87.69414062 148.65421875 88.0859375 147.62890625 C88.35277344 146.943125 88.61960937 146.25734375 88.89453125 145.55078125 C92.55502538 133.93817917 90.66964522 119.22490759 85.55078125 108.375 C84.1294168 105.74396368 82.6600383 103.17090075 81.0859375 100.62890625 C80.7971875 101.20640625 80.5084375 101.78390625 80.2109375 102.37890625 C79.16927083 104.46223958 78.12760417 106.54557292 77.0859375 108.62890625 C77.3746875 107.69691406 77.6634375 106.76492187 77.9609375 105.8046875 C82.3815872 90.92235789 82.78105052 76.74333989 75.47265625 62.48046875 C73.78942831 59.75595345 72.01228934 57.18608539 70.0859375 54.62890625 C69.61285156 53.9740625 69.13976562 53.31921875 68.65234375 52.64453125 C61.00230031 42.84900821 49.07812693 37.14410658 37.0859375 34.62890625 C35.42604468 34.54979082 33.7633088 34.5211174 32.1015625 34.53125 C31.16699219 34.53447266 30.23242188 34.53769531 29.26953125 34.54101562 C28.30144531 34.54939453 27.33335937 34.55777344 26.3359375 34.56640625 C25.35238281 34.57091797 24.36882812 34.57542969 23.35546875 34.58007812 C20.93222959 34.59184142 18.50911477 34.60827941 16.0859375 34.62890625 C15.91940674 33.66573486 15.91940674 33.66573486 15.74951172 32.68310547 C13.17138136 18.69980506 6.59661838 7.12234598 -4.9140625 -1.37109375 C-30.95705446 -17.8152737 -62.50710207 -15.01307113 -83.9140625 7.62890625 Z " fill="#1B322D" transform="translate(197.9140625,27.37109375)"/>
<path d="M0 0 C-3.09410437 0.92049717 -5.74587214 1.07194066 -8.96484375 0.95703125 C-29.27576104 0.44162103 -42.66547396 3.92928707 -57.96875 17.94921875 C-60.15602657 20.02666583 -60.15602657 20.02666583 -62 23 C-61.0925 22.9175 -60.185 22.835 -59.25 22.75 C-50.02173594 22.78728592 -40.19273976 27.43040063 -33 33 C-33 33.66 -33 34.32 -33 35 C-33.53109375 34.731875 -34.0621875 34.46375 -34.609375 34.1875 C-37.47680345 32.76315646 -40.35672805 31.37121893 -43.25 30 C-44.32765625 29.484375 -45.4053125 28.96875 -46.515625 28.4375 C-58.80906283 23.3657678 -73.919824 22.81120669 -86.34765625 27.7265625 C-91.71235595 30.30225043 -96.9482107 32.91847462 -101.15625 37.1875 C-103 39 -103 39 -105 39 C-105.27070312 39.57492188 -105.54140625 40.14984375 -105.8203125 40.7421875 C-107.01465189 43.02804236 -108.37989305 45.02565294 -109.875 47.125 C-118.343797 59.67289971 -120.33053907 75.27579246 -117.61767578 90.08740234 C-115.51951382 97.94555339 -111.05756386 104.73327145 -106 111 C-105.53207031 111.58136719 -105.06414062 112.16273438 -104.58203125 112.76171875 C-103.23727868 114.35694668 -103.23727868 114.35694668 -101 116 C-98.89768759 115.99530794 -98.89768759 115.99530794 -97 115 C-95.66666667 114.66666667 -94.33333333 114.33333333 -93 114 C-95.47598036 116.57914621 -98.07236997 118.89962444 -100.8125 121.1875 C-109.85681661 129.12229078 -117.14597374 139.96032671 -118.19287109 152.26733398 C-118.76483428 169.86473479 -116.83163375 183.15999356 -104.5625 196.6875 C-103.716875 197.450625 -102.87125 198.21375 -102 199 C-101.51144531 199.48082031 -101.02289063 199.96164063 -100.51953125 200.45703125 C-91.61737388 208.80941168 -79.8215945 212.39711365 -67.8125 212.3125 C-66.97533447 212.30686035 -66.13816895 212.3012207 -65.27563477 212.29541016 C-54.81394661 212.09176161 -46.68169563 210.03610382 -37.9609375 204.109375 C-37.31382812 203.74328125 -36.66671875 203.3771875 -36 203 C-35.34 203.33 -34.68 203.66 -34 204 C-43.28323791 210.50458166 -52.42908439 215.26389808 -64 215 C-64.47510487 231.12903132 -64.47510487 231.12903132 -62 247 C-61.34 247 -60.68 247 -60 247 C-59.46987262 248.28788008 -58.9511671 249.58046678 -58.4375 250.875 C-58.14746094 251.59429687 -57.85742188 252.31359375 -57.55859375 253.0546875 C-57 255 -57 255 -58 257 C-58.495 255.515 -58.495 255.515 -59 254 C-59.66 254 -60.32 254 -61 254 C-61.81822733 251.62683882 -62.62968707 249.2517058 -63.4375 246.875 C-63.66759766 246.20984375 -63.89769531 245.5446875 -64.13476562 244.859375 C-66.22348301 238.68403665 -67.14045992 232.98477706 -67.125 226.4375 C-67.12757812 225.34308594 -67.13015625 224.24867188 -67.1328125 223.12109375 C-67.01250685 220.29391087 -66.64499972 217.7489274 -66 215 C-66.81082031 214.97421875 -67.62164062 214.9484375 -68.45703125 214.921875 C-77.87958442 214.43922967 -85.84167333 212.6378144 -93.9375 207.6875 C-96.70647285 205.78530986 -96.70647285 205.78530986 -98.953125 206.19140625 C-106.66445054 209.23767416 -110.88638445 217.76325264 -114.5546875 224.65625 C-119.77483692 236.73313622 -120.43040545 252.92062537 -115.875 265.3125 C-112.36180163 272.90458122 -108.08846587 279.24978223 -102 285 C-101.01 286.485 -101.01 286.485 -100 288 C-103.74876206 288 -104.21936368 287.21302166 -106.8125 284.625 C-116.90614371 274.04982467 -121.46269209 261.05612939 -122.08984375 246.53515625 C-121.70057538 231.21829218 -115.53435939 217.72778604 -104.72265625 206.98828125 C-102.67259126 205.06056358 -102.67259126 205.06056358 -103 202 C-104.56965838 200.21766338 -104.56965838 200.21766338 -106.625 198.4375 C-116.9117776 188.4415147 -121.34949694 175.36796367 -122.03125 161.1875 C-121.86376382 144.10391002 -114.1095035 130.43206344 -103 118 C-103.42410156 117.62230469 -103.84820312 117.24460937 -104.28515625 116.85546875 C-115.88860729 105.96607623 -121.39081529 92.42540606 -122.09375 76.609375 C-121.66675644 60.17012302 -115.57554208 47.41193017 -104 36 C-103.43539062 35.42507812 -102.87078125 34.85015625 -102.2890625 34.2578125 C-94.93013896 27.32965522 -84.16956847 21.95427571 -73.9375 22.01953125 C-67.2369198 22.08365312 -67.2369198 22.08365312 -61.55078125 18.9609375 C-60.07932855 17.21210144 -58.63967629 15.43608939 -57.23046875 13.63671875 C-49.28405154 4.24296811 -35.23566704 -1.11510489 -23.296875 -2.7890625 C-6.23460617 -3.88072425 -6.23460617 -3.88072425 0 0 Z " fill="#213D38" transform="translate(174,16)"/>
<path d="M0 0 C3.40518414 3.02037655 5.01704748 5.78434695 6.6875 10 C7.10386719 11.03125 7.52023438 12.0625 7.94921875 13.125 C10.11362501 19.04694427 10.21671211 24.35855401 10.25 30.625 C10.2809375 32.04619141 10.2809375 32.04619141 10.3125 33.49609375 C10.34901193 40.16864922 9.23505039 45.73013686 7 52 C6.608125 53.19625 6.21625 54.3925 5.8125 55.625 C5.4103125 56.800625 5.4103125 56.800625 5 58 C20.34673474 58.83038445 34.5988827 54.91075199 46.25 44.625 C47.51246069 43.42969148 48.76754848 42.22622702 50 41 C50 44 50 44 48.453125 45.83203125 C38.60902989 54.68124441 27.69057203 59.92519665 14.375 60.5625 C6.69281673 60.3983386 6.69281673 60.3983386 0.3671875 63.78515625 C-0.12523437 64.53667969 -0.61765625 65.28820312 -1.125 66.0625 C-8.83654008 76.56154483 -20.98718124 82.97462863 -33.58251953 85.65136719 C-36.83093873 86.11983241 -39.92280097 85.99631732 -43.19140625 85.81860352 C-50.54142097 85.24076067 -50.54142097 85.24076067 -57.3984375 87.3046875 C-59.0341092 89.03813933 -59.0341092 89.03813933 -60.41796875 90.9921875 C-66.43471016 98.62824944 -78.53624191 103.57250576 -88 105 C-103.78586933 106.22014545 -117.26710548 104.60914737 -130.55859375 95.33203125 C-131.03425781 94.89246094 -131.50992188 94.45289063 -132 94 C-132 93.34 -132 92.68 -132 92 C-127.15879294 93.84765334 -122.63502895 96.18837216 -118.03515625 98.5625 C-106.41610919 104.0654721 -92.07594198 103.72423409 -79.875 100 C-70.98868429 96.56642906 -63.7505916 91.61457646 -58 84 C-58.83144531 83.67386719 -59.66289062 83.34773438 -60.51953125 83.01171875 C-61.60621094 82.57472656 -62.69289063 82.13773437 -63.8125 81.6875 C-64.89144531 81.25824219 -65.97039062 80.82898438 -67.08203125 80.38671875 C-69.69144777 79.14663459 -71.17408984 78.18468549 -73 76 C-68.14712932 77.573904 -63.36794839 79.32282028 -58.5859375 81.09765625 C-45.46798229 85.67506962 -31.21959307 83.03621466 -18.875 77.375 C-5.70865572 70.37822542 1.40120215 60.36027908 6.23828125 46.54296875 C10.15363624 33.47170669 8.99920301 18.88018162 2.84375 6.71484375 C1.92894121 5.1237299 0.96962013 3.55831807 0 2 C0 1.34 0 0.68 0 0 Z " fill="#132522" transform="translate(205,212)"/>
<path d="M0 0 C0.69794678 0.03456299 1.39589355 0.06912598 2.11499023 0.10473633 C5.75649592 0.34481149 8.63466361 0.72034171 11.75 2.6875 C8.65589563 3.60799717 6.00412786 3.75944066 2.78515625 3.64453125 C-17.52576104 3.12912103 -30.91547396 6.61678707 -46.21875 20.63671875 C-48.40602657 22.71416583 -48.40602657 22.71416583 -50.25 25.6875 C-48.88875 25.56375 -48.88875 25.56375 -47.5 25.4375 C-38.27173594 25.47478592 -28.44273976 30.11790063 -21.25 35.6875 C-21.25 36.3475 -21.25 37.0075 -21.25 37.6875 C-21.78753906 37.41808594 -22.32507813 37.14867187 -22.87890625 36.87109375 C-23.66136719 36.48050781 -24.44382813 36.08992188 -25.25 35.6875 C-26.16652344 35.22472656 -27.08304688 34.76195312 -28.02734375 34.28515625 C-35.6383387 30.58784968 -42.9365773 28.23861324 -51.25 26.6875 C-51.25 21.56733004 -49.77883824 20.39159633 -46.4296875 16.7734375 C-33.68915314 4.58088311 -17.4009579 -0.94708389 0 0 Z " fill="#233C37" transform="translate(162.25,13.3125)"/>
<path d="M0 0 C0.66 0.33 1.32 0.66 2 1 C-7.28323791 7.50458166 -16.42908439 12.26389808 -28 12 C-28.47510487 28.12903132 -28.47510487 28.12903132 -26 44 C-25.34 44 -24.68 44 -24 44 C-23.46987262 45.28788008 -22.9511671 46.58046678 -22.4375 47.875 C-22.14746094 48.59429687 -21.85742188 49.31359375 -21.55859375 50.0546875 C-21 52 -21 52 -22 54 C-22.33 53.01 -22.66 52.02 -23 51 C-23.66 51 -24.32 51 -25 51 C-25.81822733 48.62683882 -26.62968707 46.2517058 -27.4375 43.875 C-27.66759766 43.20984375 -27.89769531 42.5446875 -28.13476562 41.859375 C-30.22348301 35.68403665 -31.14045992 29.98477706 -31.125 23.4375 C-31.12757812 22.34308594 -31.13015625 21.24867188 -31.1328125 20.12109375 C-31.01250685 17.29391087 -30.64499972 14.7489274 -30 12 C-30.81082031 11.97421875 -31.62164062 11.9484375 -32.45703125 11.921875 C-41.8941713 11.43848249 -49.62083006 9.31536927 -58 5 C-57.67 4.34 -57.34 3.68 -57 3 C-56.18015625 3.34933594 -55.3603125 3.69867188 -54.515625 4.05859375 C-53.43796875 4.51363281 -52.3603125 4.96867188 -51.25 5.4375 C-50.18265625 5.88996094 -49.1153125 6.34242188 -48.015625 6.80859375 C-36.79140655 11.24303239 -21.0735239 10.45542665 -10 6 C-7.2206745 4.48400427 -4.57898124 2.88862803 -1.9609375 1.109375 C-1.31382812 0.74328125 -0.66671875 0.3771875 0 0 Z " fill="#28413C" transform="translate(138,219)"/>
<path d="M0 0 C1.81635406 3.09770282 2.2040329 5.1780076 2.01953125 8.74609375 C1.98682129 9.65979736 1.95411133 10.57350098 1.92041016 11.51489258 C1.86699463 12.96158325 1.86699463 12.96158325 1.8125 14.4375 C1.55572329 28.8864904 5.60190239 40.26562523 15.75 50.875 C16.86375 51.926875 16.86375 51.926875 18 53 C18.66 53.99 19.32 54.98 20 56 C16.25123794 56 15.78063632 55.21302166 13.1875 52.625 C2.2410055 41.15628741 -2.23561478 26.73181763 -2 11 C-1.55745072 7.26681205 -0.90100269 3.64868857 0 0 Z " fill="#1F403C" transform="translate(54,248)"/>
<path d="M0 0 C12.84963298 3.00966158 25.82247297 11.71433202 33.16748047 22.75488281 C34.35320479 24.68582079 35.47136769 26.63916851 36.5625 28.625 C36.90941895 29.24632813 37.25633789 29.86765625 37.61376953 30.5078125 C39.8435355 34.82334109 40.34060128 38.18204013 40 43 C38.07150225 40.10725338 36.99114841 37.54362302 35.75 34.3125 C33.47580249 28.80270954 30.91560295 24.46960912 27 20 C26.47277344 19.34515625 25.94554687 18.6903125 25.40234375 18.015625 C18.19567056 9.84278244 7.26711303 5.1664928 -3 2 C-2.01 1.34 -1.02 0.68 0 0 Z " fill="#1D3430" transform="translate(174,15)"/>
<path d="M0 0 C4.84120706 1.84765334 9.36497105 4.18837216 13.96484375 6.5625 C20.56597105 9.68890263 25.97138901 10.35351884 33.1875 10.3125 C34.11844482 10.31121094 35.04938965 10.30992187 36.00854492 10.30859375 C42.68127875 10.21537473 48.7420942 9.46212687 55 7 C55.66 7.66 56.32 8.32 57 9 C42.46814068 14.94003009 26.87721157 15.11486218 12.234375 9.50390625 C7.86339985 7.47150838 3.56462933 5.29414255 0 2 C0 1.34 0 0.68 0 0 Z " fill="#172A26" transform="translate(73,304)"/>
<path d="M0 0 C4.85287068 1.573904 9.63205161 3.32282028 14.4140625 5.09765625 C19.35220562 6.82078474 24.04188591 7.28185074 29.25 7.5625 C29.99507812 7.60568359 30.74015625 7.64886719 31.5078125 7.69335938 C33.338349 7.79896725 35.16915176 7.89994201 37 8 C37 8.66 37 9.32 37 10 C35.70964844 9.91878906 34.41929687 9.83757812 33.08984375 9.75390625 C24.05013188 9.00193715 24.05013188 9.00193715 15.56640625 11.3125 C13.96792033 13.04005052 13.96792033 13.04005052 12.60546875 14.97265625 C10.5107355 17.61783035 8.13540384 19.16603502 5.3125 21 C3.94544922 21.8971875 3.94544922 21.8971875 2.55078125 22.8125 C0 24 0 24 -2.33203125 23.6875 C-3.15767578 23.3471875 -3.15767578 23.3471875 -4 23 C-3.07380859 22.48953125 -3.07380859 22.48953125 -2.12890625 21.96875 C4.28720886 18.29681806 9.65044914 14.09111845 15 9 C12.01737882 7.01158588 9.02359325 5.46328268 5.8125 3.875 C4.72582031 3.33617187 3.63914063 2.79734375 2.51953125 2.2421875 C1.68808594 1.83226562 0.85664063 1.42234375 0 1 C0 0.67 0 0.34 0 0 Z " fill="#0F201B" transform="translate(132,288)"/>
<path d="M0 0 C5 5 5 5 7.3125 7.375 C10.74951134 10.73208085 14.36015197 13.86593731 18 17 C17.01 17 16.02 17 15 17 C9.48106368 17.84055944 6.37998058 21.83324554 3 26 C-0.78372359 32.06280856 -3.88596541 38.16530563 -6 45 C-6.33 45 -6.66 45 -7 45 C-6.57679753 33.78513449 -0.40411507 25.86622918 7.2421875 18.09375 C9.3214955 16.07269743 9.3214955 16.07269743 9 13 C7.06715754 10.89544716 4.97143273 9.04308764 2.84765625 7.1328125 C0.75744466 4.72001011 0.34384259 3.13278807 0 0 Z " fill="#1D3A35" transform="translate(62,205)"/>
<path d="M0 0 C0.33 0 0.66 0 1 0 C1.20753906 0.87140625 1.41507813 1.7428125 1.62890625 2.640625 C4.41966324 13.42999511 8.88983441 26.89619374 19 33 C21.07884329 32.77326568 21.07884329 32.77326568 23 32 C24.33333333 31.66666667 25.66666667 31.33333333 27 31 C22.04087193 36.13623978 22.04087193 36.13623978 19 38 C17.515 37.505 17.515 37.505 16 37 C16 36.01 16 35.02 16 34 C14.19720727 31.83585189 14.19720727 31.83585189 11.875 29.5625 C3.72736132 20.81085655 -0.19638229 11.78293717 0 0 Z " fill="#1C3531" transform="translate(54,99)"/>
<path d="M0 0 C0 3 0 3 -1.546875 4.83203125 C-11.46850913 13.75094704 -22.43885319 18.84331208 -35.8125 19.75 C-37.11832031 19.84796875 -38.42414063 19.9459375 -39.76953125 20.046875 C-43 20 -43 20 -45 18 C-43.93523437 17.91363281 -42.87046875 17.82726562 -41.7734375 17.73828125 C-25.60801587 16.25098753 -11.55110759 12.11549395 0 0 Z " fill="#112823" transform="translate(255,253)"/>
<path d="M0 0 C0.33 0 0.66 0 1 0 C1.62619141 16.98182935 0.94928379 31.05300047 -10 45 C-10.99 45.66 -11.98 46.32 -13 47 C-12.36411006 43.62901716 -11.06485667 41.35168102 -9.1875 38.5 C-1.86445581 26.36517138 -0.95708497 13.84271681 0 0 Z " fill="#22423C" transform="translate(269,207)"/>
<path d="M0 0 C0.66 1.32 1.32 2.64 2 4 C2.55349121 4.01458252 3.10698242 4.02916504 3.67724609 4.04418945 C28.78353168 4.78353168 28.78353168 4.78353168 34 10 C30.52071645 11.15976118 29.86282314 10.78980625 26.5390625 9.57421875 C20.7381541 7.72176581 15.41886998 7.65514958 9.375 7.8125 C7.86873047 7.83280273 7.86873047 7.83280273 6.33203125 7.85351562 C3.88743136 7.88843848 1.44402266 7.93747252 -1 8 C-0.67 5.36 -0.34 2.72 0 0 Z " fill="#192F2B" transform="translate(214,55)"/>
<path d="M0 0 C10.25620069 4.45080407 18.14123677 10.96510717 24.25 20.3125 C24.64501709 20.9111084 25.04003418 21.5097168 25.44702148 22.12646484 C28.06749868 26.38556349 28.06749868 26.38556349 27.734375 29.41796875 C27.49203125 29.94003906 27.2496875 30.46210937 27 31 C26.34644531 29.82244141 26.34644531 29.82244141 25.6796875 28.62109375 C18.58568263 16.10677779 11.37541792 9.32377674 -1 2 C-0.67 1.34 -0.34 0.68 0 0 Z " fill="#19302B" transform="translate(248,64)"/>
<path d="M0 0 C0.7265625 1.69140625 0.7265625 1.69140625 1 4 C-0.4765625 6.40234375 -0.4765625 6.40234375 -2.625 8.9375 C-3.72908203 10.27167969 -3.72908203 10.27167969 -4.85546875 11.6328125 C-7 14 -7 14 -9.9375 16.3125 C-13.428425 20.86128106 -12.9101435 26.42072849 -13 32 C-13.33 32 -13.66 32 -14 32 C-14.48091058 29.79204578 -14.95965179 27.583619 -15.4375 25.375 C-15.70433594 24.14523438 -15.97117187 22.91546875 -16.24609375 21.6484375 C-16.90911451 18.43982928 -17.48729384 15.23552432 -18 12 C-17.01 13.32 -16.02 14.64 -15 16 C-11.46600105 14.52157091 -9.44254483 12.55937221 -6.9375 9.6875 C-6.26589844 8.92824219 -5.59429687 8.16898438 -4.90234375 7.38671875 C-3.02076312 5.02604983 -1.48963418 2.62194178 0 0 Z " fill="#19332F" transform="translate(282,183)"/>
<path d="M0 0 C0.99 0.495 0.99 0.495 2 1 C2.26224288 3.2827051 2.40761122 5.5791389 2.5 7.875 C2.81757277 14.38016997 3.6340711 20.62124463 5 27 C5.66 27 6.32 27 7 27 C7.53012738 28.28788008 8.0488329 29.58046678 8.5625 30.875 C8.99755859 31.95394531 8.99755859 31.95394531 9.44140625 33.0546875 C10 35 10 35 9 37 C8.505 35.515 8.505 35.515 8 34 C7.34 34 6.68 34 6 34 C5.18177267 31.62683882 4.37031293 29.2517058 3.5625 26.875 C3.33240234 26.20984375 3.10230469 25.5446875 2.86523438 24.859375 C0.73250671 18.55391929 -0.13073754 12.8122792 -0.0625 6.125 C-0.05347656 4.97257813 -0.04445313 3.82015625 -0.03515625 2.6328125 C-0.02355469 1.76398438 -0.01195313 0.89515625 0 0 Z " fill="#314E48" transform="translate(107,236)"/>
<path d="M0 0 C0.33 0 0.66 0 1 0 C1.01417969 0.93199219 1.02835938 1.86398438 1.04296875 2.82421875 C1.35022141 11.03699933 2.46803526 17.4728587 5.84375 25.09765625 C7.03211547 28.08061417 7.58480489 30.82470102 8 34 C2.17954244 27.76379547 -1.16935449 18.96591069 -0.87890625 10.44921875 C-0.77449219 9.20785156 -0.67007813 7.96648437 -0.5625 6.6875 C-0.46066406 5.43324219 -0.35882813 4.17898437 -0.25390625 2.88671875 C-0.17011719 1.93410156 -0.08632813 0.98148438 0 0 Z " fill="#244D46" transform="translate(54,173)"/>
<path d="M0 0 C0.99 0.66 1.98 1.32 3 2 C-6.69618393 5.66263946 -14.77506877 6.50912521 -25 6 C-21.42001162 3.61334108 -18.34831987 3.40740575 -14.1875 3 C-10.13018232 2.59613796 -6.53824031 2.19227386 -2.67578125 0.8125 C-1.79277344 0.544375 -0.90976563 0.27625 0 0 Z " fill="#183833" transform="translate(127,311)"/>
<path d="M0 0 C0.69802734 0.03544922 1.39605469 0.07089844 2.11523438 0.10742188 C5.7774429 0.34088331 8.68107575 0.7050738 11.8125 2.6875 C8.97358633 3.51181635 6.60684281 3.77284606 3.66015625 3.6015625 C2.88349609 3.55773437 2.10683594 3.51390625 1.30664062 3.46875 C0.50419922 3.4171875 -0.29824219 3.365625 -1.125 3.3125 C-1.92357422 3.26867187 -2.72214844 3.22484375 -3.54492188 3.1796875 C-7.50786108 2.94329013 -11.31249614 2.61123829 -15.1875 1.6875 C-15.1875 1.3575 -15.1875 1.0275 -15.1875 0.6875 C-9.99728068 -0.21485186 -5.24753315 -0.35969007 0 0 Z " fill="#284742" transform="translate(162.1875,13.3125)"/>
<path d="M0 0 C2 2 2 2 2.16699219 3.90771484 C2.10753418 5.04781006 2.10753418 5.04781006 2.046875 6.2109375 C2.00433594 7.04367188 1.96179687 7.87640625 1.91796875 8.734375 C1.86253906 9.60578125 1.80710938 10.4771875 1.75 11.375 C1.71003906 12.23867187 1.67007813 13.10234375 1.62890625 13.9921875 C1.38795429 18.21210296 1.10649073 21.2632594 -1 25 C-1.94282543 16.27249433 -2.11222766 8.55364922 0 0 Z " fill="#32554D" transform="translate(54,78)"/>
<path d="M0 0 C2.70570025 3.91285883 2.07953909 7.98608089 1.75 12.5 C1.71003906 13.25925781 1.67007813 14.01851563 1.62890625 14.80078125 C1.38233328 18.60600193 1.10472181 21.75665819 -1 25 C-1.94282543 16.27249433 -2.11222766 8.55364922 0 0 Z " fill="#31524C" transform="translate(54,248)"/>
<path d="M0 0 C5 5 5 5 7.3125 7.375 C10.74951134 10.73208085 14.36015197 13.86593731 18 17 C15 17 12 17 9 17 C9.33 16.01 9.66 15.02 10 14 C9.36191406 13.40832031 8.72382812 12.81664062 8.06640625 12.20703125 C7.24011719 11.41683594 6.41382812 10.62664062 5.5625 9.8125 C4.73878906 9.03519531 3.91507812 8.25789062 3.06640625 7.45703125 C0.87705998 4.8538199 0.32606505 3.33772044 0 0 Z " fill="#1E3732" transform="translate(62,205)"/>
<path d="M0 0 C0.66 0.33 1.32 0.66 2 1 C1.01297432 6.87570581 -0.21568551 11.68449052 -3 17 C-3 18.32 -3 19.64 -3 21 C-5.18127243 23.46828196 -7.03746288 25.51873144 -10 27 C-9.29170666 23.07042735 -7.41082712 19.79882898 -5.5625 16.3125 C-2.77473438 10.92840331 -0.93141868 6.00247591 0 0 Z " fill="#253D38" transform="translate(213,251)"/>
<path d="M0 0 C0.66 0.33 1.32 0.66 2 1 C-9.33712984 7.70387244 -9.33712984 7.70387244 -16 8 C-16 8.66 -16 9.32 -16 10 C-15.030625 10.28875 -14.06125 10.5775 -13.0625 10.875 C-10 12 -10 12 -9 14 C-12.72433382 12.7874262 -16.37802806 11.49140021 -20 10 C-19.67 9.01 -19.34 8.02 -19 7 C-16.26953125 5.9375 -16.26953125 5.9375 -12.8125 5 C-9.19320945 4.00728031 -6.04792981 3.02450376 -2.69921875 1.3125 C-1.80847656 0.879375 -0.91773438 0.44625 0 0 Z " fill="#233834" transform="translate(254,159)"/>
<path d="M0 0 C4.62208345 5.13564827 9.32702304 11.97966439 9.3125 19.125 C9.1578125 20.548125 9.1578125 20.548125 9 22 C7.06111169 19.09166753 5.86731074 16.41904063 4.5625 13.1875 C2.85748585 9.02585304 1.09851498 4.97613365 -1 1 C-0.67 0.67 -0.34 0.34 0 0 Z " fill="#172B28" transform="translate(205,36)"/>
<path d="M0 0 C0.66 0.33 1.32 0.66 2 1 C1.53444296 7.40140935 -0.14711836 12.26769829 -3 18 C-3.66 17.01 -4.32 16.02 -5 15 C-4.35546875 12.44140625 -4.35546875 12.44140625 -3.1875 9.5625 C-1.92180391 6.38746032 -0.7348173 3.34223353 0 0 Z " fill="#27443F" transform="translate(287,167)"/>
<path d="M0 0 C0.66 1.32 1.32 2.64 2 4 C8.27 4.33 14.54 4.66 21 5 C21 5.33 21 5.66 21 6 C15.06 6 9.12 6 3 6 C3 6.66 3 7.32 3 8 C1.68 7.67 0.36 7.34 -1 7 C-0.67 4.69 -0.34 2.38 0 0 Z " fill="#325C54" transform="translate(214,55)"/>
<path d="M0 0 C0.66 0.66 1.32 1.32 2 2 C0.274773 2.67679658 -1.45538939 3.34102 -3.1875 4 C-4.15042969 4.37125 -5.11335937 4.7425 -6.10546875 5.125 C-8.92182358 5.97636772 -11.08164439 6.17072647 -14 6 C-14.33 5.34 -14.66 4.68 -15 4 C-14.16855469 3.79503906 -13.33710938 3.59007812 -12.48046875 3.37890625 C-11.39378906 3.10949219 -10.30710938 2.84007812 -9.1875 2.5625 C-7.56908203 2.16224609 -7.56908203 2.16224609 -5.91796875 1.75390625 C-3.9259157 1.23922588 -1.95188476 0.65062825 0 0 Z " fill="#1D3A34" transform="translate(183,291)"/>
<path d="M0 0 C1.66666667 1.66666667 3.33333333 3.33333333 5 5 C5.886875 5.86625 6.77375 6.7325 7.6875 7.625 C10 10 10 10 12 13 C8.15316862 13 7.54409258 11.97666805 4.875 9.3125 C4.17117187 8.62800781 3.46734375 7.94351562 2.7421875 7.23828125 C0.82084115 4.76982506 0.35533029 3.07414536 0 0 Z " fill="#1D3732" transform="translate(62,291)"/>
<path d="M0 0 C0.99 0.33 1.98 0.66 3 1 C2.50628906 1.48210938 2.01257813 1.96421875 1.50390625 2.4609375 C0.86324219 3.09257813 0.22257812 3.72421875 -0.4375 4.375 C-1.07558594 5.00148438 -1.71367188 5.62796875 -2.37109375 6.2734375 C-4.07882176 7.91723061 -4.07882176 7.91723061 -5 10 C-3.02 10 -1.04 10 1 10 C1 10.33 1 10.66 1 11 C-1.31 11 -3.62 11 -6 11 C-6 6.63204596 -5.77237852 6.25341007 -3 3.25 C-2.443125 2.63640625 -1.88625 2.0228125 -1.3125 1.390625 C-0.6628125 0.70226562 -0.6628125 0.70226562 0 0 Z " fill="#112420" transform="translate(117,29)"/>
<path d="M0 0 C3.13671875 0.8984375 3.13671875 0.8984375 6.6875 2.375 C8.45673828 3.09816406 8.45673828 3.09816406 10.26171875 3.8359375 C11.16535156 4.22007813 12.06898438 4.60421875 13 5 C12.01 5.66 11.02 6.32 10 7 C6.86328125 6.1015625 6.86328125 6.1015625 3.3125 4.625 C2.13300781 4.14289062 0.95351562 3.66078125 -0.26171875 3.1640625 C-1.16535156 2.77992187 -2.06898438 2.39578125 -3 2 C-2.01 1.34 -1.02 0.68 0 0 Z " fill="#213C38" transform="translate(174,15)"/>
<path d="M0 0 C3.10190545 4.65285818 4.33846504 9.41532676 4 15 C3.34 15 2.68 15 2 15 C1.47076428 12.87707704 0.95184623 10.75157949 0.4375 8.625 C0.14746094 7.44164063 -0.14257812 6.25828125 -0.44140625 5.0390625 C-1 2 -1 2 0 0 Z " fill="#233F3B" transform="translate(276,93)"/>
<path d="M0 0 C0 0.99 0 1.98 0 3 C-9.41002278 3.18451025 -9.41002278 3.18451025 -14 2 C-14 1.67 -14 1.34 -14 1 C-9.27685687 0.22887459 -4.78478822 -0.09764874 0 0 Z " fill="#44605B" transform="translate(161,13)"/>
<path d="M0 0 C0.99 0.33 1.98 0.66 3 1 C1.68 3.64 0.36 6.28 -1 9 C-1.66 8.34 -2.32 7.68 -3 7 C-2.01 4.69 -1.02 2.38 0 0 Z " fill="#24433F" transform="translate(265,235)"/>
<path d="M0 0 C0 0.33 0 0.66 0 1 C-6.93 0.505 -6.93 0.505 -14 0 C-14 -0.33 -14 -0.66 -14 -1 C-12.41870971 -1.22331199 -10.83478911 -1.42804644 -9.25 -1.625 C-8.36828125 -1.74101563 -7.4865625 -1.85703125 -6.578125 -1.9765625 C-3.77140122 -2.00207817 -2.36615134 -1.44843844 0 0 Z " fill="#355B56" transform="translate(111,39)"/>
<path d="M0 0 C4.40114397 0.50298788 6.71195019 2.08772731 10 5 C9.01 5.495 9.01 5.495 8 6 C6.0546875 5.0390625 6.0546875 5.0390625 3.875 3.625 C3.15054688 3.16351562 2.42609375 2.70203125 1.6796875 2.2265625 C1.12539062 1.82179688 0.57109375 1.41703125 0 1 C0 0.67 0 0.34 0 0 Z " fill="#152623" transform="translate(185,21)"/>
<path d="M0 0 C2.83374881 3.20336822 3.5205537 5.78087253 4 10 C3.34 9.67 2.68 9.34 2 9 C2 8.34 2 7.68 2 7 C1.34 7 0.68 7 0 7 C0 4.69 0 2.38 0 0 Z " fill="#4A766D" transform="translate(113,263)"/>
<path d="M0 0 C0.66 0.33 1.32 0.66 2 1 C0.02 3.31 -1.96 5.62 -4 8 C-4.33 7.01 -4.66 6.02 -5 5 C-3.35 3.35 -1.7 1.7 0 0 Z " fill="#1E3531" transform="translate(68,54)"/>
<path d="M0 0 C0.99 0.33 1.98 0.66 3 1 C0.6875 3.5 0.6875 3.5 -2 6 C-2.99 6 -3.98 6 -5 6 C-3.35 4.02 -1.7 2.04 0 0 Z " fill="#2A4C47" transform="translate(74,48)"/>
<path d="M0 0 C3.65316671 1.24976756 4.78065836 1.67098753 7 5 C4.03 4.67 1.06 4.34 -2 4 C-1.34 2.68 -0.68 1.36 0 0 Z " fill="#172723" transform="translate(73,218)"/>
<path d="M0 0 C1.41377341 2.63904371 2.37240135 5.07120629 3 8 C1.68 7.67 0.36 7.34 -1 7 C-0.67 4.69 -0.34 2.38 0 0 Z " fill="#2E4C44" transform="translate(214,55)"/>
<path d="M0 0 C2.56687367 3.8503105 1.83288724 5.58569763 1 10 C0.67 10 0.34 10 0 10 C-1.125 2.25 -1.125 2.25 0 0 Z " fill="#29514B" transform="translate(287,142)"/>
<path d="M0 0 C3.00617269 3.00617269 2.59585316 5.82381598 3 10 C0.50939295 7.50939295 -0.08717042 5.37044767 -1 2 C-0.67 1.34 -0.34 0.68 0 0 Z " fill="#1D3D37" transform="translate(284,134)"/>
</svg>
